<svg width="1335" height="941" viewBox="0 0 1335 941" fill="none" xmlns="http://www.w3.org/2000/svg">
<rect x="84.5798" y="100.131" width="64.6285" height="26.2553" transform="rotate(-30 84.5798 100.131)" fill="#DD6B1F" fill-opacity="0.03"/>
<rect x="209.476" y="155.519" width="64.6285" height="26.2553" transform="rotate(28.6315 209.476 155.519)" fill="#DD6B1F" fill-opacity="0.03"/>
<rect x="192.581" y="97" width="64.6285" height="26.2553" transform="rotate(28.6315 192.581 97)" fill="#DD6B1F" fill-opacity="0.03"/>
<rect x="40.4362" y="86.2806" width="64.6285" height="26.2553" transform="rotate(102.445 40.4362 86.2806)" fill="#DD6B1F" fill-opacity="0.03"/>
<rect x="366" y="123.314" width="64.6285" height="26.2553" transform="rotate(-30 366 123.314)" fill="#DD6B1F" fill-opacity="0.03"/>
<rect x="751" y="478.314" width="64.6285" height="26.2553" transform="rotate(-30 751 478.314)" fill="#DD6B1F" fill-opacity="0.03"/>
<rect x="1265" y="382.314" width="64.6285" height="26.2553" transform="rotate(-30 1265 382.314)" fill="#DD6B1F" fill-opacity="0.03"/>
<rect x="1081.15" y="274.742" width="64.6285" height="26.2553" transform="rotate(39.8461 1081.15 274.742)" fill="#DD6B1F" fill-opacity="0.03"/>
<rect x="1292.27" y="115.644" width="64.6285" height="26.2553" transform="rotate(54.1583 1292.27 115.644)" fill="#DD6B1F" fill-opacity="0.03"/>
<rect x="1237" y="711.314" width="64.6285" height="26.2553" transform="rotate(-30 1237 711.314)" fill="#DD6B1F" fill-opacity="0.03"/>
<rect x="857" y="563.314" width="64.6285" height="26.2553" transform="rotate(-30 857 563.314)" fill="#DD6B1F" fill-opacity="0.03"/>
<rect x="717" y="209.314" width="64.6285" height="26.2553" transform="rotate(-30 717 209.314)" fill="#DD6B1F" fill-opacity="0.03"/>
<rect x="739" y="32.3143" width="64.6285" height="26.2553" transform="rotate(-30 739 32.3143)" fill="#DD6B1F" fill-opacity="0.03"/>
<rect x="631" y="123.314" width="64.6285" height="26.2553" transform="rotate(-30 631 123.314)" fill="#DD6B1F" fill-opacity="0.03"/>
<rect x="428.538" y="572.359" width="64.6285" height="26.2553" transform="rotate(56.2943 428.538 572.359)" fill="#DD6B1F" fill-opacity="0.03"/>
<rect x="251" y="705.314" width="64.6285" height="26.2553" transform="rotate(-30 251 705.314)" fill="#DD6B1F" fill-opacity="0.03"/>
<rect x="287.144" y="522.564" width="64.6285" height="26.2553" transform="rotate(48.8049 287.144 522.564)" fill="#DD6B1F" fill-opacity="0.03"/>
<rect x="310.502" y="740.346" width="64.6285" height="26.2553" transform="rotate(26.5319 310.502 740.346)" fill="#DD6B1F" fill-opacity="0.03"/>
<rect x="179.538" y="717" width="64.6285" height="26.2553" transform="rotate(56.2943 179.538 717)" fill="#DD6B1F" fill-opacity="0.03"/>
<rect x="2" y="849.955" width="64.6285" height="26.2553" transform="rotate(-30 2 849.955)" fill="#DD6B1F" fill-opacity="0.03"/>
<rect x="61.5018" y="884.987" width="64.6285" height="26.2553" transform="rotate(26.5319 61.5018 884.987)" fill="#DD6B1F" fill-opacity="0.03"/>
<rect x="128" y="847.314" width="64.6285" height="26.2553" transform="rotate(-30 128 847.314)" fill="#DD6B1F" fill-opacity="0.03"/>
<rect x="379" y="377.314" width="64.6285" height="26.2553" transform="rotate(-30 379 377.314)" fill="#DD6B1F" fill-opacity="0.03"/>
<rect x="297" y="350.314" width="64.6285" height="26.2553" transform="rotate(-30 297 350.314)" fill="#DD6B1F" fill-opacity="0.03"/>
<rect x="592.149" y="202.823" width="64.6285" height="26.2553" transform="rotate(105.063 592.149 202.823)" fill="#DD6B1F" fill-opacity="0.03"/>
<rect x="602.149" y="477.823" width="64.6285" height="26.2553" transform="rotate(105.063 602.149 477.823)" fill="#DD6B1F" fill-opacity="0.03"/>
<rect x="443.149" y="831.823" width="64.6285" height="26.2553" transform="rotate(105.063 443.149 831.823)" fill="#DD6B1F" fill-opacity="0.03"/>
<rect x="631.149" y="650.823" width="64.6285" height="26.2553" transform="rotate(105.063 631.149 650.823)" fill="#DD6B1F" fill-opacity="0.03"/>
<rect x="606.149" y="846.823" width="64.6285" height="26.2553" transform="rotate(105.063 606.149 846.823)" fill="#DD6B1F" fill-opacity="0.03"/>
<rect x="171.149" y="400.823" width="64.6285" height="26.2553" transform="rotate(105.063 171.149 400.823)" fill="#DD6B1F" fill-opacity="0.03"/>
<rect x="85.1487" y="546.823" width="64.6285" height="26.2553" transform="rotate(105.063 85.1487 546.823)" fill="#DD6B1F" fill-opacity="0.03"/>
<rect x="451.149" y="209.823" width="64.6285" height="26.2553" transform="rotate(105.063 451.149 209.823)" fill="#DD6B1F" fill-opacity="0.03"/>
<rect x="528.149" y="135.823" width="64.6285" height="26.2553" transform="rotate(105.063 528.149 135.823)" fill="#DD6B1F" fill-opacity="0.03"/>
<rect x="1188.09" y="577.175" width="64.6285" height="26.2553" transform="rotate(-99.8812 1188.09 577.175)" fill="#DD6B1F" fill-opacity="0.03"/>
<rect x="930.091" y="687.175" width="64.6285" height="26.2553" transform="rotate(-99.8812 930.091 687.175)" fill="#DD6B1F" fill-opacity="0.03"/>
<rect x="986.091" y="822.175" width="64.6285" height="26.2553" transform="rotate(-99.8812 986.091 822.175)" fill="#DD6B1F" fill-opacity="0.03"/>
<rect x="1125.09" y="919.175" width="64.6285" height="26.2553" transform="rotate(-99.8812 1125.09 919.175)" fill="#DD6B1F" fill-opacity="0.03"/>
<rect x="1042.09" y="707.175" width="64.6285" height="26.2553" transform="rotate(-99.8812 1042.09 707.175)" fill="#DD6B1F" fill-opacity="0.03"/>
<rect x="883.436" y="250.786" width="64.6285" height="26.2553" transform="rotate(62.7702 883.436 250.786)" fill="#DD6B1F" fill-opacity="0.03"/>
<rect x="1035.35" y="298" width="64.6285" height="26.2553" transform="rotate(62.7702 1035.35 298)" fill="#DD6B1F" fill-opacity="0.03"/>
<rect x="838.346" y="355" width="64.6285" height="26.2553" transform="rotate(62.7702 838.346 355)" fill="#DD6B1F" fill-opacity="0.03"/>
<rect x="1031" y="467.314" width="64.6285" height="26.2553" transform="rotate(-30 1031 467.314)" fill="#DD6B1F" fill-opacity="0.03"/>
<circle cx="210.5" cy="303.5" r="22.5" fill="#DD6B1F" fill-opacity="0.03"/>
<circle cx="71.5" cy="348.5" r="22.5" fill="#DD6B1F" fill-opacity="0.03"/>
<circle cx="563.5" cy="411.5" r="22.5" fill="#DD6B1F" fill-opacity="0.03"/>
<circle cx="93.5" cy="203.5" r="22.5" fill="#DD6B1F" fill-opacity="0.03"/>
<circle cx="276.5" cy="45.5" r="22.5" fill="#DD6B1F" fill-opacity="0.03"/>
<circle cx="566.5" cy="45.5" r="22.5" fill="#DD6B1F" fill-opacity="0.03"/>
<circle cx="643.5" cy="283.5" r="22.5" fill="#DD6B1F" fill-opacity="0.03"/>
<circle cx="510.5" cy="328.5" r="22.5" fill="#DD6B1F" fill-opacity="0.03"/>
<circle cx="352.5" cy="254.5" r="22.5" fill="#DD6B1F" fill-opacity="0.03"/>
<circle cx="425.5" cy="491.5" r="22.5" fill="#DD6B1F" fill-opacity="0.03"/>
<circle cx="668.5" cy="462.5" r="22.5" fill="#DD6B1F" fill-opacity="0.03"/>
<circle cx="1182.5" cy="366.5" r="22.5" fill="#DD6B1F" fill-opacity="0.03"/>
<circle cx="1154.5" cy="695.5" r="22.5" fill="#DD6B1F" fill-opacity="0.03"/>
<circle cx="636.5" cy="562.5" r="22.5" fill="#DD6B1F" fill-opacity="0.03"/>
<circle cx="970.5" cy="382.5" r="22.5" fill="#DD6B1F" fill-opacity="0.03"/>
<circle cx="969.5" cy="225.5" r="22.5" fill="#DD6B1F" fill-opacity="0.03"/>
<circle cx="1122.5" cy="795.5" r="22.5" fill="#DD6B1F" fill-opacity="0.03"/>
<circle cx="739.5" cy="350.5" r="22.5" fill="#DD6B1F" fill-opacity="0.03"/>
<circle cx="784.5" cy="265.5" r="22.5" fill="#DD6B1F" fill-opacity="0.03"/>
<circle cx="830.5" cy="123.5" r="22.5" fill="#DD6B1F" fill-opacity="0.03"/>
<circle cx="1253.5" cy="254.5" r="22.5" fill="#DD6B1F" fill-opacity="0.03"/>
<rect x="944.182" y="157.503" width="64.6285" height="26.2553" transform="rotate(-80.836 944.182 157.503)" fill="#DD6B1F" fill-opacity="0.03"/>
<rect x="1081.45" y="54.6496" width="64.6285" height="26.2553" transform="rotate(11.9342 1081.45 54.6496)" fill="#DD6B1F" fill-opacity="0.03"/>
<circle cx="1067.86" cy="229.223" r="22.5" transform="rotate(-50.836 1067.86 229.223)" fill="#DD6B1F" fill-opacity="0.03"/>
<circle cx="1151.65" cy="195.655" r="22.5" transform="rotate(-50.836 1151.65 195.655)" fill="#DD6B1F" fill-opacity="0.03"/>
<circle cx="1226.65" cy="80.6549" r="22.5" transform="rotate(-50.836 1226.65 80.6549)" fill="#DD6B1F" fill-opacity="0.03"/>
<circle cx="750.5" cy="705.5" r="22.5" fill="#DD6B1F" fill-opacity="0.03"/>
<circle cx="837.5" cy="750.5" r="22.5" fill="#DD6B1F" fill-opacity="0.03"/>
<circle cx="694.5" cy="824.5" r="22.5" fill="#DD6B1F" fill-opacity="0.03"/>
<circle cx="299.5" cy="133.5" r="22.5" fill="#DD6B1F" fill-opacity="0.03"/>
<circle cx="172.5" cy="32.5" r="22.5" fill="#DD6B1F" fill-opacity="0.03"/>
<circle cx="68.5" cy="23.5" r="22.5" fill="#DD6B1F" fill-opacity="0.03"/>
<circle cx="945.5" cy="496.5" r="22.5" fill="#DD6B1F" fill-opacity="0.03"/>
<circle cx="970.5" cy="892.5" r="22.5" fill="#DD6B1F" fill-opacity="0.03"/>
<circle cx="785.5" cy="569.5" r="22.5" fill="#DD6B1F" fill-opacity="0.03"/>
<circle cx="713.5" cy="618.5" r="22.5" fill="#DD6B1F" fill-opacity="0.03"/>
<circle cx="1299.5" cy="473.5" r="22.5" fill="#DD6B1F" fill-opacity="0.03"/>
<circle cx="1271.5" cy="802.5" r="22.5" fill="#DD6B1F" fill-opacity="0.03"/>
<circle cx="1264.5" cy="918.5" r="22.5" fill="#DD6B1F" fill-opacity="0.03"/>
<circle cx="1081.5" cy="578.5" r="22.5" fill="#DD6B1F" fill-opacity="0.03"/>
<circle cx="254.5" cy="451.5" r="22.5" fill="#DD6B1F" fill-opacity="0.03"/>
<circle cx="232.5" cy="592.5" r="22.5" fill="#DD6B1F" fill-opacity="0.03"/>
<circle cx="510.5" cy="739.5" r="22.5" fill="#DD6B1F" fill-opacity="0.03"/>
<circle cx="131.5" cy="623.5" r="22.5" fill="#DD6B1F" fill-opacity="0.03"/>
<circle cx="71.5" cy="762.5" r="22.5" fill="#DD6B1F" fill-opacity="0.03"/>
</svg>
