<svg width="161" height="118" viewBox="0 0 161 118" fill="none" xmlns="http://www.w3.org/2000/svg">
<path d="M54.02 55.875C59.2 55.875 63.1467 54.7033 65.86 52.36C68.6967 49.8933 70.115 46.1933 70.115 41.26C70.115 36.5733 68.635 32.9967 65.675 30.53C62.8383 27.94 58.645 26.645 53.095 26.645C51.1217 26.645 49.4567 26.7067 48.1 26.83C46.8667 26.83 45.5717 26.9533 44.215 27.2V55.875H54.02ZM44.4 115.26C43.0433 115.63 40.885 116 37.925 116.37C35.0883 116.74 32.2517 116.925 29.415 116.925C26.5783 116.925 24.05 116.678 21.83 116.185C19.7333 115.815 17.945 115.075 16.465 113.965C14.985 112.855 13.875 111.313 13.135 109.34C12.395 107.367 12.025 104.777 12.025 101.57V14.435C12.025 11.845 12.7033 9.87166 14.06 8.51499C15.54 7.03499 17.5133 5.86333 19.98 5C24.1733 3.51999 28.9217 2.47166 34.225 1.85499C39.6517 1.11499 45.0783 0.744995 50.505 0.744995C67.525 0.744995 80.5367 4.38333 89.54 11.66C98.5433 18.9367 103.045 28.8033 103.045 41.26C103.045 47.3033 102.058 52.7917 100.085 57.725C98.235 62.535 95.3983 66.7283 91.575 70.305C87.875 73.7583 83.1267 76.4717 77.33 78.445C71.6567 80.295 65.0583 81.22 57.535 81.22H44.4V115.26ZM137.021 93.789C137.021 96.0943 137.73 97.7347 139.149 98.71C140.656 99.6853 142.74 100.173 145.4 100.173C146.73 100.173 148.104 100.084 149.523 99.907C150.942 99.641 152.183 99.3307 153.247 98.976C154.045 99.9513 154.71 101.06 155.242 102.301C155.863 103.454 156.173 104.872 156.173 106.557C156.173 109.926 154.887 112.675 152.316 114.803C149.833 116.931 145.4 117.995 139.016 117.995C131.213 117.995 125.184 116.222 120.928 112.675C116.761 109.128 114.677 103.365 114.677 95.385V38.461C115.652 38.195 117.027 37.929 118.8 37.663C120.662 37.3083 122.613 37.131 124.652 37.131C128.553 37.131 131.568 37.8403 133.696 39.259C135.913 40.589 137.021 43.4707 137.021 47.904V56.416H154.444C154.976 57.3913 155.464 58.6327 155.907 60.14C156.439 61.5587 156.705 63.1547 156.705 64.928C156.705 68.0313 155.996 70.2923 154.577 71.711C153.247 73.041 151.429 73.706 149.124 73.706H137.021V93.789Z" fill="black"/>
<circle cx="85.5" cy="105.5" r="10.5" fill="#DD6B1F"/>
<rect x="110" y="8" width="32" height="13" fill="#DD6B1F"/>
</svg>
